<svg width="512" height="512" viewBox="0 0 512 512" fill="none" xmlns="http://www.w3.org/2000/svg">
<rect width="512" height="512" rx="100" fill="#E42E0F"/>
<path d="M243.407 144.402C244.127 146.397 246.949 146.397 247.67 144.402L253.5 128.252C254.249 126.179 255.865 124.536 257.926 123.754L273.796 117.735C275.746 116.995 275.746 114.237 273.796 113.497L257.926 107.478C255.865 106.696 254.249 105.053 253.5 102.98L247.67 86.83C246.949 84.8344 244.127 84.8344 243.407 86.83L237.577 102.98C236.828 105.053 235.211 106.696 233.15 107.478L217.281 113.497C215.331 114.237 215.331 116.995 217.281 117.735L233.15 123.754C235.211 124.536 236.828 126.179 237.577 128.252L243.407 144.402Z" fill="white"/>
<path d="M344.494 299.973C324.412 359.091 257.589 397.271 201.38 376.034C145.412 354.889 116.686 293.115 136.074 236.928C136.659 235.232 138.541 234.38 140.218 235.014L161.486 243.049C163.164 243.683 164.003 245.561 163.427 247.26C147.369 294.61 171.638 346.521 218.773 364.329C266.149 382.228 319.44 344.107 338.461 297.495C339.083 295.971 341.169 295.629 342.816 296.251C344.098 296.735 345.006 298.702 344.494 299.973Z" fill="white"/>
<path d="M289.829 295.743C303.841 255.996 283.471 212.095 243.705 197.071C204.409 182.224 160.676 201.056 144.43 239.217C143.728 240.868 144.579 242.748 146.257 243.382L159.526 248.396C161.204 249.03 163.071 248.179 163.786 246.534C177.668 214.597 214.429 198.895 247.476 211.38C280.992 224.043 293.042 260.787 283.709 292.518C283.39 293.434 283.087 295.743 285.576 296.873C286.842 297.448 289.309 297.217 289.829 295.743Z" fill="white"/>
<path d="M267.478 132.869C347.718 154.412 396.417 236.253 376.555 317.36C370.658 341.442 359.37 362.789 344.289 380.432C343.572 381.27 342.398 381.549 341.375 381.138L313.557 369.97C311.676 369.214 311.34 366.683 312.92 365.412C334.326 348.2 350.45 324.071 357.488 295.33C374.229 226.97 333.33 157.991 265.834 139.575C263.997 139.074 262.853 137.209 263.306 135.358C263.759 133.508 265.639 132.375 267.478 132.869Z" fill="white"/>
</svg>
