<svg width="40" height="40" viewBox="0 0 40 40" fill="none" xmlns="http://www.w3.org/2000/svg">
<path d="M29.447 25.4667C27.3177 31.6767 20.2319 35.6873 14.2718 33.4566C8.33703 31.2353 5.29109 24.7463 7.34687 18.8441C7.40891 18.666 7.60843 18.5764 7.78635 18.643L10.0415 19.4871C10.2194 19.5537 10.3083 19.751 10.2473 19.9294C8.54458 24.9034 11.1179 30.3563 16.116 32.227C21.1396 34.1072 26.7904 30.1028 28.8073 25.2064C28.8733 25.0463 29.0945 25.0104 29.2691 25.0757C29.4051 25.1266 29.5014 25.3332 29.447 25.4667Z" fill="currentColor"/>
<path d="M23.6505 25.0223C25.1363 20.8471 22.9764 16.2356 18.7598 14.6574C14.5929 13.0978 9.95558 15.076 8.23293 19.0846C8.15843 19.258 8.2487 19.4555 8.42662 19.5221L9.83369 20.0488C10.0116 20.1154 10.2096 20.026 10.2854 19.8532C11.7574 16.4983 15.6554 14.849 19.1596 16.1605C22.7135 17.4907 23.9912 21.3504 23.0016 24.6836C22.9678 24.7798 22.9356 25.0223 23.1995 25.1411C23.3339 25.2015 23.5954 25.1772 23.6505 25.0223Z" fill="currentColor"/>
<path d="M21.2575 7.89493C29.7659 10.158 34.9297 18.755 32.8236 27.2748C32.1983 29.8046 31.0013 32.047 29.4022 33.9002C29.3262 33.9883 29.2018 34.0176 29.0932 33.9744L26.1435 32.8012C25.944 32.7219 25.9084 32.4559 26.076 32.3224C28.3458 30.5144 30.0555 27.9797 30.8018 24.9607C32.5769 17.7798 28.2401 10.5339 21.0831 8.5994C20.8883 8.54673 20.767 8.35082 20.8151 8.15647C20.8631 7.96212 21.0624 7.84304 21.2575 7.89493Z" fill="currentColor"/>
<path d="M18.7678 8.99095C18.8439 9.19606 19.1423 9.19606 19.2184 8.99095L19.8348 7.33108C19.9139 7.11799 20.0848 6.94913 20.3027 6.86879L21.9803 6.25015C22.1864 6.17413 22.1864 5.89062 21.9803 5.8146L20.3027 5.19596C20.0848 5.11562 19.9139 4.94676 19.8348 4.73367L19.2184 3.0738C19.1423 2.86869 18.8439 2.86869 18.7678 3.0738L18.1514 4.73367C18.0723 4.94676 17.9014 5.11562 17.6835 5.19597L16.0059 5.8146C15.7998 5.89062 15.7998 6.17414 16.0059 6.25015L17.6835 6.86879C17.9014 6.94913 18.0723 7.11799 18.1514 7.33108L18.7678 8.99095Z" fill="currentColor"/>
</svg>
