<svg width="156" height="150" viewBox="0 0 156 150" fill="none" xmlns="http://www.w3.org/2000/svg">
<path fill-rule="evenodd" clip-rule="evenodd" d="M77.8613 0C113.311 0 142.605 28.4625 147.223 65.3828C149.218 65.496 151.043 66.2377 152.508 67.4121V15.29C152.508 14.3256 153.289 13.5439 154.254 13.5439C155.218 13.544 156 14.3257 156 15.29V87.4248C156 92.5685 151.83 96.7383 146.687 96.7383C146.068 96.7383 145.464 96.6756 144.879 96.5605C136.191 125.091 140 150.5 77.8613 149.72C15.7227 148.939 19.5588 125.108 10.8564 96.6074C10.3544 96.6912 9.83932 96.7383 9.31348 96.7383C4.16981 96.7383 0 92.5685 0 87.4248V74.6807C0 69.8121 3.73581 65.8179 8.49707 65.4043C13.1063 28.4736 42.4047 9.30787e-05 77.8613 0ZM66.5 39C60.462 39 57.443 39.0004 54.9131 39.3721C39.6243 41.618 27.618 53.6243 25.3721 68.9131C25.0004 71.443 25 74.462 25 80.5C25 86.538 25.0004 89.557 25.3721 92.0869C27.618 107.376 39.6243 119.382 54.9131 121.628C57.443 122 60.462 122 66.5 122H88.5C94.538 122 97.557 122 100.087 121.628C115.376 119.382 127.382 107.376 129.628 92.0869C130 89.557 130 86.538 130 80.5C130 74.462 130 71.443 129.628 68.9131C127.382 53.6243 115.376 41.618 100.087 39.3721C97.557 39.0004 94.538 39 88.5 39H66.5Z" fill="#FF8A15"/>
<rect x="23" y="36" width="109" height="88" rx="37" stroke="#2D2D2D" stroke-width="6"/>
<path d="M77.0489 5.92705C77.3483 5.00574 78.6517 5.00574 78.9511 5.92705L80.9187 11.9828C81.0526 12.3948 81.4365 12.6738 81.8697 12.6738H88.2371C89.2058 12.6738 89.6086 13.9134 88.8249 14.4828L83.6736 18.2254C83.3231 18.4801 83.1764 18.9314 83.3103 19.3435L85.2779 25.3992C85.5773 26.3205 84.5228 27.0866 83.7391 26.5172L78.5878 22.7746C78.2373 22.5199 77.7627 22.5199 77.4122 22.7746L72.2609 26.5172C71.4772 27.0866 70.4227 26.3205 70.7221 25.3992L72.6897 19.3435C72.8236 18.9314 72.6769 18.4801 72.3264 18.2254L67.1751 14.4828C66.3914 13.9134 66.7942 12.6738 67.7629 12.6738H74.1303C74.5635 12.6738 74.9474 12.3948 75.0813 11.9828L77.0489 5.92705Z" fill="#2D2D2D"/>
</svg>
