<svg width="180" height="180" viewBox="0 0 180 180" fill="none" xmlns="http://www.w3.org/2000/svg">
<path d="M90 167C132.526 167 167 132.526 167 90C167 47.4741 132.526 13 90 13C47.4741 13 13 47.4741 13 90C13 132.526 47.4741 167 90 167Z" stroke="#FF8A15" stroke-opacity="0.2" stroke-width="6"/>
<path d="M90 162C129.765 162 162 129.765 162 90C162 50.2355 129.765 18 90 18C50.2355 18 18 50.2355 18 90C18 129.765 50.2355 162 90 162Z" stroke="#FF8A15" stroke-opacity="0.5" stroke-width="6"/>
<path d="M90 156C126.451 156 156 126.451 156 90C156 53.5492 126.451 24 90 24C53.5492 24 24 53.5492 24 90C24 126.451 53.5492 156 90 156Z" stroke="#FF8A15" stroke-opacity="0.8" stroke-width="6"/>
<path d="M35 143C36.6569 143 38 141.657 38 140C38 138.343 36.6569 137 35 137C33.3431 137 32 138.343 32 140C32 141.657 33.3431 143 35 143Z" fill="#FF8A15"/>
<path d="M161 100C162.105 100 163 99.1046 163 98C163 96.8954 162.105 96 161 96C159.895 96 159 96.8954 159 98C159 99.1046 159.895 100 161 100Z" fill="#FF8A15"/>
<path d="M104 18C104.552 18 105 17.5523 105 17C105 16.4477 104.552 16 104 16C103.448 16 103 16.4477 103 17C103 17.5523 103.448 18 104 18Z" fill="#FF8A15"/>
<path d="M46 39C47.6569 39 49 37.6569 49 36C49 34.3431 47.6569 33 46 33C44.3431 33 43 34.3431 43 36C43 37.6569 44.3431 39 46 39Z" fill="#FF8A15"/>
<path d="M134 153C135.105 153 136 152.105 136 151C136 149.895 135.105 149 134 149C132.895 149 132 149.895 132 151C132 152.105 132.895 153 134 153Z" fill="#FF8A15"/>
<path d="M90 150C123.137 150 150 123.137 150 90C150 56.8629 123.137 30 90 30C56.8629 30 30 56.8629 30 90C30 123.137 56.8629 150 90 150Z" stroke="#FF8A15" stroke-width="6"/>
<path d="M146.562 17.5343C146.884 16.6637 148.116 16.6637 148.438 17.5343L152.067 27.342C152.168 27.6157 152.384 27.8315 152.658 27.9328L162.465 31.5619C163.336 31.8841 163.336 33.1155 162.465 33.4377L152.658 37.0668C152.384 37.1681 152.168 37.3839 152.067 37.6576L148.438 47.4653C148.116 48.3359 146.884 48.3359 146.562 47.4653L142.933 37.6576C142.832 37.3839 142.616 37.1681 142.342 37.0668L132.535 33.4377C131.664 33.1155 131.664 31.8841 132.535 31.5619L142.342 27.9328C142.616 27.8315 142.832 27.6157 142.933 27.342L146.562 17.5343Z" fill="#FF8A15"/>
</svg>
