<svg width="799" height="703" viewBox="0 0 799 703" fill="none" xmlns="http://www.w3.org/2000/svg">
<g id="arbat">
<path id="floor" d="M2 246V0L465 1L469 13H798V455.947C791.634 491.436 798 546 744 613C706.475 659.559 606.244 696.313 558 701L15 626L20 246H2Z" fill="#161616" fill-opacity="0.1"/>
<g id="furniture" opacity="0.4">
<rect id="Rectangle 54" x="115" y="173" width="134" height="22" fill="#D0D0D0"/>
<rect id="Rectangle 55" x="321" y="207" width="40" height="22" fill="#D0D0D0"/>
<rect id="Rectangle 61" width="54" height="25" transform="matrix(1 0 0 -1 13 86)" fill="#D0D0D0"/>
<rect id="Rectangle 56" width="54" height="25" transform="matrix(1 0 0 -1 13 114.333)" fill="#D0D0D0"/>
<rect id="Rectangle 59" width="54" height="25" transform="matrix(1 0 0 -1 13 142.667)" fill="#D0D0D0"/>
<rect id="Rectangle 60" width="54" height="25" transform="matrix(1 0 0 -1 13 171)" fill="#D0D0D0"/>
<rect id="Rectangle 58" x="13" y="6" width="107" height="51" fill="#D0D0D0"/>
<rect id="Rectangle 57" width="20" height="109" transform="matrix(1 0 0 -1 100 170)" fill="#D0D0D0"/>
<rect id="Rectangle 62" width="27" height="132" transform="matrix(1 0 0 -1 32 458)" fill="#D0D0D0"/>
<path id="Rectangle 67" d="M142 308H163V259H205.5V238H142V308Z" fill="#D0D0D0"/>
<rect id="Rectangle 64" width="40" height="21" transform="matrix(1 0 0 -1 80 440)" fill="#D0D0D0"/>
<rect id="Rectangle 65" width="40" height="21" transform="matrix(1 0 0 -1 80 401)" fill="#D0D0D0"/>
<rect id="Rectangle 66" width="40" height="21" transform="matrix(1 0 0 -1 80 362)" fill="#D0D0D0"/>
<rect id="Rectangle 68" width="40" height="21" transform="matrix(1 0 0 -1 200 315)" fill="#D0D0D0"/>
<rect id="Rectangle 94" width="40" height="21" transform="matrix(1 0 0 -1 262 624)" fill="#D0D0D0"/>
<rect id="Rectangle 70" width="59" height="15" transform="matrix(1 0 0 -1 302 249)" fill="#D0D0D0"/>
<rect id="Rectangle 93" x="445" y="249" width="49" height="15" transform="rotate(180 445 249)" fill="#D0D0D0"/>
<rect id="Rectangle 69" width="40" height="21" transform="matrix(-4.37114e-08 1 1 4.37114e-08 302.5 295.5)" fill="#D0D0D0"/>
<path id="Rectangle 71" d="M284.5 395.5L284.5 455.5L305.5 455.5L305.5 395.5L284.5 395.5Z" fill="#D0D0D0"/>
<path id="Rectangle 78" d="M438 394L438 446L465 446L465 394L438 394Z" fill="#D0D0D0"/>
<path id="Rectangle 104" d="M179 368L179 433L206 433L206 368L179 368Z" fill="#D0D0D0"/>
<path id="Rectangle 72" d="M699 380L699 572L720 572L720 380L699 380Z" fill="#D0D0D0"/>
<path id="Rectangle 79" d="M202 505L202 619L223 619L223 505L202 505Z" fill="#D0D0D0"/>
<path id="Rectangle 80" d="M179 505L179 619L200 619L200 505L179 505Z" fill="#D0D0D0"/>
<path id="Rectangle 95" d="M370 541L370 655L391 655L391 541L370 541Z" fill="#D0D0D0"/>
<path id="Rectangle 96" d="M347 541L347 655L368 655L368 541L347 541Z" fill="#D0D0D0"/>
<path id="Rectangle 97" d="M446 609L446 655L467 655L467 609L446 609Z" fill="#D0D0D0"/>
<path id="Rectangle 99" d="M446 541L446 587L467 587L467 541L446 541Z" fill="#D0D0D0"/>
<path id="Rectangle 98" d="M423 541L423 655L444 655L444 541L423 541Z" fill="#D0D0D0"/>
<path id="Rectangle 85" d="M674 238L548 238L548 259L674 259L674 238Z" fill="#D0D0D0"/>
<path id="Rectangle 87" d="M675 317L514 317L514 338L675 338L675 317Z" fill="#D0D0D0"/>
<path id="Rectangle 90" d="M683 313L754 313L754 336L683 336L683 313Z" fill="#D0D0D0"/>
<path id="Rectangle 91" d="M715 237L783 237L783 259L715 259L715 237Z" fill="#D0D0D0"/>
<path id="Rectangle 92" d="M762 262L783 262L783 284L762 284L762 262Z" fill="#D0D0D0"/>
<path id="Rectangle 88" d="M675 137L581 137L581 161L675 161L675 137Z" fill="#D0D0D0"/>
<path id="Rectangle 89" d="M575 137L530 137L530 161L575 161L575 137Z" fill="#D0D0D0"/>
<path id="Rectangle 86" d="M674 215L548 215L548 236L674 236L674 215Z" fill="#D0D0D0"/>
<path id="Rectangle 81" d="M133 505L133 619L154 619L154 505L133 505Z" fill="#D0D0D0"/>
<path id="Rectangle 82" d="M110 505L110 619L131 619L131 505L110 505Z" fill="#D0D0D0"/>
<path id="Rectangle 83" d="M59 505L59 614L80 614L80 505L59 505Z" fill="#D0D0D0"/>
<path id="Rectangle 84" d="M36 505L36 614L57 614L57 505L36 505Z" fill="#D0D0D0"/>
<path id="Rectangle 77" d="M768 412L768 480L783 480L783 412L768 412Z" fill="#D0D0D0"/>
<path id="Rectangle 103" d="M494 396L494 464L509 464L509 396L494 396Z" fill="#D0D0D0"/>
<path id="Rectangle 101" d="M623.021 655L571 669.827L575.534 685.735L627.556 670.908L623.021 655Z" fill="#D0D0D0"/>
<path id="Rectangle 102" d="M673.911 627.009L626.616 653.263L634.645 667.726L681.939 641.472L673.911 627.009Z" fill="#D0D0D0"/>
<path id="Rectangle 75" d="M676 380L676 447L697 447L697 380L676 380Z" fill="#D0D0D0"/>
<path id="Rectangle 76" d="M676 468L676 572L697 572L697 468L676 468Z" fill="#D0D0D0"/>
<path id="Rectangle 73" d="M541 380L541 629L562 629L562 380L541 380Z" fill="#D0D0D0"/>
<path id="Rectangle 74" d="M563 380L563 629L584 629L584 380L563 380Z" fill="#D0D0D0"/>
<rect id="Rectangle 63" x="32" y="238" width="12" height="86" fill="#D0D0D0"/>
<rect id="Rectangle 105" x="141" y="417" width="49" height="15" transform="rotate(-90 141 417)" fill="#D0D0D0"/>
<circle id="Ellipse 1" cx="65" cy="264" r="12" fill="#D9D9D9"/>
<circle id="Ellipse 3" cx="428" cy="304" r="12" fill="#D9D9D9"/>
<circle id="Ellipse 2" cx="65" cy="301" r="12" fill="#D9D9D9"/>
<circle id="Ellipse 4" cx="335" cy="421" r="12" fill="#D9D9D9"/>
</g>
<rect id="id1" x="137" y="339" width="107" height="119" fill="black" fill-opacity="0.3"/>
<rect id="id4" x="244" y="339" width="266" height="169" fill="black" fill-opacity="0.3"/>
<rect id="id2" x="391" y="231" width="73" height="108" fill="black" fill-opacity="0.3"/>
<rect id="id5" width="100" height="60" transform="matrix(1 0 0 -1 364 231)" fill="black" fill-opacity="0.3"/>
<rect id="id3" x="678" y="231" width="114" height="108" fill="black" fill-opacity="0.3"/>
<g id="walls">
<path d="M464 588C465.657 588 467 589.343 467 591V604C467 605.657 465.657 607 464 607H449C447.343 607 446 605.657 446 604V591C446 589.343 447.343 588 449 588H464Z" fill="#C3C3C3"/>
<path d="M464 448C465.657 448 467 449.343 467 451V464C467 465.657 465.657 467 464 467H449C447.343 467 446 465.657 446 464V451C446 449.343 447.343 448 449 448H464Z" fill="#C3C3C3"/>
<path d="M694 448C695.657 448 697 449.343 697 451V464C697 465.657 695.657 467 694 467H679C677.343 467 676 465.657 676 464V451C676 449.343 677.343 448 679 448H694Z" fill="#C3C3C3"/>
<path d="M511 273C512.381 273 513.5 274.119 513.5 275.5V337H676.5V304.5C676.5 303.119 677.619 302 679 302C680.381 302 681.5 303.119 681.5 304.5V337H758C759.381 337 760.5 338.119 760.5 339.5C760.5 340.881 759.381 342 758 342H680.499C680.081 342.313 679.562 342.5 679 342.5C678.438 342.5 677.919 342.313 677.501 342H508.5V275.5C508.5 274.119 509.619 273 511 273Z" fill="#C3C3C3"/>
<path fill-rule="evenodd" clip-rule="evenodd" d="M464 0C465.933 0 467.5 1.567 467.5 3.5V8.92871C467.5 10.3094 468.619 11.4287 470 11.4287H795C796.933 11.4287 798.5 12.9957 798.5 14.9287V474.918L798.495 474.952L798.432 475.402C798.177 477.218 797.92 479.191 797.643 481.313C793.795 510.787 786.254 568.549 730.456 626.703C676.069 683.386 595.955 699.653 557.169 701.987L556.825 702.008C556.701 702.015 556.577 702.016 556.453 702.011C556.349 702.006 556.244 701.996 556.141 701.981L18.2754 628.373C16.524 628.133 15.2259 626.625 15.25 624.857L20.3701 248.534C20.3891 247.14 19.264 246 17.8701 246H4C2.067 246 0.5 244.433 0.5 242.5V3.5C0.5 1.567 2.067 0 4 0H464ZM791.403 476.495C790.582 476.38 789.825 476.951 789.715 477.77C789.595 478.657 789.474 479.576 789.35 480.524L789.212 481.572V481.576L789.21 481.588L789.208 481.602L789.205 481.624L789.203 481.64L789.202 481.645L789.201 481.648L789.202 481.649C785.417 510.523 778.23 565.346 724.798 620.889C673.828 673.871 598.577 690.023 560.383 692.701C559.561 692.759 558.949 693.462 558.999 694.297C559.049 695.135 559.74 695.754 560.552 695.697C599.098 693.001 675.241 676.728 726.959 622.969C781.086 566.704 788.379 511.03 792.172 482.074L792.173 482.071V482.064C792.25 481.478 792.326 480.902 792.4 480.337C792.497 479.604 792.592 478.889 792.686 478.193C792.79 477.421 792.292 476.706 791.554 476.524L791.403 476.495ZM56.5 7C55.1193 7 54 8.11928 54 9.5V10.5C54 12.433 52.433 14 50.5 14H17C15.6193 14 14.5 15.1193 14.5 16.5V165C14.5 166.381 15.6193 167.5 17 167.5H69.5C71.433 167.5 73 169.067 73 171C73 172.933 71.433 174.5 69.5 174.5H17C15.6193 174.5 14.5 175.619 14.5 177V229.5C14.5 230.881 15.6193 232 17 232H51V203C51 201.067 52.567 199.5 54.5 199.5H67.5C69.433 199.5 71 201.067 71 203V238C71 238.828 70.3284 239.5 69.5 239.5H36.96C35.5926 239.5 34.4787 240.599 34.46 241.966L31.5488 456H119V233C119 231.067 120.567 229.5 122.5 229.5H137.5C138.897 229.5 140.099 230.318 140.661 231.5H228.036C228.279 229.804 229.737 228.5 231.5 228.5H245.5C247.433 228.5 249 230.067 249 232V245C249 246.933 247.433 248.5 245.5 248.5H231.5C229.567 248.5 228 246.933 228 245V236.5H141V336H245.5C246.881 336 248 337.119 248 338.5C248 339.881 246.881 341 245.5 341H141V456H227V451C227 449.067 228.567 447.5 230.5 447.5H241.5V369.5C241.5 368.119 242.619 367 244 367C245.381 367 246.5 368.119 246.5 369.5V448.129C247.406 448.761 248 449.81 248 451V464C248 465.933 246.433 467.5 244.5 467.5H230.5C228.567 467.5 227 465.933 227 464V461H140.371C139.739 461.906 138.69 462.5 137.5 462.5H122.5C121.31 462.5 120.261 461.906 119.629 461H31.4805L29.4053 613.55C29.3881 614.812 30.3146 615.889 31.5654 616.061L64.4746 620.564C66.208 620.802 67.4999 622.283 67.5 624.032V627.363C67.5001 628.62 68.4327 629.681 69.6787 629.843L106.179 634.566C107.674 634.76 109 633.595 109 632.087V630.67C109 628.548 110.873 626.914 112.975 627.202L150.975 632.402C152.708 632.64 154 634.121 154 635.87V638.867C154 640.122 154.931 641.183 156.176 641.346L192.176 646.061C193.672 646.256 195 645.091 195 643.582V642.439C195 640.318 196.873 638.684 198.975 638.972L241.5 644.791V495.5C241.5 494.119 242.619 493 244 493C245.381 493 246.5 494.119 246.5 495.5V505.5H261C262.381 505.5 263.5 506.619 263.5 508C263.5 509.381 262.381 510.5 261 510.5H246.5V645.476L291.975 651.699C293.708 651.937 295 653.417 295 655.167V658.372C295 659.625 295.928 660.685 297.171 660.85L418.671 676.962C420.169 677.161 421.5 675.995 421.5 674.484V673.438C421.5 671.317 423.373 669.683 425.475 669.971L507.5 681.195V511H291C289.619 511 288.5 509.881 288.5 508.5C288.5 507.119 289.619 506 291 506H507.5V369.5C507.5 368.119 508.619 367 510 367C511.381 367 512.5 368.119 512.5 369.5V681.879L556.762 687.937L557.007 687.958C557.088 687.961 557.168 687.96 557.25 687.955L559.035 687.83C597.1 685.008 670.677 668.786 720.354 617.011C772.937 562.208 779.986 508.338 783.773 479.39L783.776 479.374V479.372L783.785 479.304C784.033 477.409 784.268 475.619 784.5 473.943V411H790C791.381 411 792.5 409.881 792.5 408.5V373.5C792.5 372.119 791.381 371 790 371H784.5V324H790C791.381 324 792.5 322.881 792.5 321.5V286.5C792.5 285.119 791.381 284 790 284H784.5V239C784.5 237.619 783.381 236.5 782 236.5H681.5V281.5C681.5 282.881 680.381 284 679 284C677.619 284 676.5 282.881 676.5 281.5V236.351C675.055 235.92 674 234.585 674 233V142C674 140.619 672.881 139.5 671.5 139.5H531.5C530.119 139.5 529 140.619 529 142V171C529 172.933 527.433 174.5 525.5 174.5H513.5V250C513.5 251.381 512.381 252.5 511 252.5C509.619 252.5 508.5 251.381 508.5 250V173.5C508.5 173.299 508.525 173.103 508.57 172.915C508.21 172.365 508 171.706 508 171V121C508 119.619 506.881 118.5 505.5 118.5H503.5C501.567 118.5 500 116.933 500 115C500 113.067 501.567 111.5 503.5 111.5H671.5C672.881 111.5 674 110.381 674 109V27.9287C674 26.548 672.881 25.4287 671.5 25.4287H469C467.619 25.4287 466.5 26.548 466.5 27.9287V109C466.5 110.381 467.619 111.5 469 111.5H472.5C474.433 111.5 476 113.067 476 115C476 116.933 474.433 118.5 472.5 118.5H469C467.619 118.5 466.5 119.619 466.5 121V171.5C466.5 173.433 464.933 175 463 175H460.25C459.56 175 459 174.44 459 173.75C459 173.612 458.888 173.5 458.75 173.5H369.5C368.119 173.5 367 174.619 367 176V225C367 226.381 368.119 227.5 369.5 227.5H393.5C394.153 227.5 394.707 227.918 394.913 228.5H447C447.017 228.5 447.033 228.501 447.05 228.501C447.681 227.883 448.546 227.5 449.5 227.5H460V200.5C460 199.119 461.119 198 462.5 198C463.881 198 465 199.119 465 200.5V227.839C466.182 228.401 467 229.603 467 231V244C467 245.933 465.433 247.5 463.5 247.5H449.5C447.567 247.5 446 245.933 446 244V233.5H395V336H461.5V275C461.5 273.619 462.619 272.5 464 272.5C465.381 272.5 466.5 273.619 466.5 275V341H394C393.799 341 393.603 340.974 393.415 340.929C392.865 341.289 392.207 341.5 391.5 341.5H362.5C361.938 341.5 361.418 341.314 361 341H304C302.619 341 301.5 339.881 301.5 338.5C301.5 337.119 302.619 336 304 336H360V237C360 235.619 358.881 234.5 357.5 234.5H301.5C299.567 234.5 298 232.933 298 231C298 229.067 299.567 227.5 301.5 227.5H357.5C358.881 227.5 360 226.381 360 225V176C360 174.619 358.881 173.5 357.5 173.5H304.5C302.567 173.5 301 171.933 301 170V150C301 148.067 302.567 146.5 304.5 146.5H376.5C377.881 146.5 379 145.381 379 144V124C379 122.067 380.567 120.5 382.5 120.5C384.433 120.5 386 122.067 386 124V144C386 145.381 387.119 146.5 388.5 146.5H444C445.381 146.5 446.5 145.381 446.5 144V85C446.5 83.6193 445.381 82.5 444 82.5H389C387.619 82.5 386.5 83.6193 386.5 85V96.5C386.5 98.433 384.933 100 383 100C381.067 100 379.5 98.433 379.5 96.5V70.5C379.5 68.567 381.067 67 383 67C384.933 67 386.5 68.567 386.5 70.5V73.5C386.5 74.8807 387.619 76 389 76H456.5C457.881 76 459 74.8807 459 73.5V27.6787C459 26.4361 457.993 25.4287 456.75 25.4287C454.955 25.4287 453.5 23.9736 453.5 22.1787V16.5C453.5 15.1193 452.381 14 451 14H389C387.619 14 386.5 15.1193 386.5 16.5V43.5C386.5 45.433 384.933 47 383 47H381.5C379.567 47 378 45.433 378 43.5V16.5C378 15.1193 376.881 14 375.5 14H286C284.619 14 283.5 15.1193 283.5 16.5V28C283.5 29.933 281.933 31.5 280 31.5H238C236.619 31.5 235.5 32.6193 235.5 34V125C235.5 126.933 233.933 128.5 232 128.5H229.5C227.567 128.5 226 126.933 226 125V16.5C226 15.1193 224.881 14 223.5 14H215.5C213.567 14 212 12.433 212 10.5V9.5C212 8.11928 210.881 7 209.5 7H194.5C193.119 7 192 8.11928 192 9.5V10.5C192 12.433 190.433 14 188.5 14H133C131.619 14 130.5 15.1193 130.5 16.5V165C130.5 166.381 131.619 167.5 133 167.5H251.5C253.433 167.5 255 169.067 255 171C255 172.933 253.433 174.5 251.5 174.5H100.5C98.567 174.5 97 172.933 97 171C97 169.067 98.567 167.5 100.5 167.5H115.5C116.881 167.5 118 166.381 118 165V16.5C118 15.1193 116.881 14 115.5 14H98.5C96.567 14 95 12.433 95 10.5V9.5C95 8.11928 93.8807 7 92.5 7H56.5ZM128.5 236.5C127.119 236.5 126 237.619 126 239V453C126 454.381 127.119 455.5 128.5 455.5H131.5C132.881 455.5 134 454.381 134 453V239C134 237.619 132.881 236.5 131.5 236.5H128.5ZM369.5 253.5C368.119 253.5 367 254.619 367 256V332C367 333.381 368.119 334.5 369.5 334.5H385.5C386.881 334.5 388 333.381 388 332V256C388 254.619 386.881 253.5 385.5 253.5H369.5ZM369.5 234.5C368.119 234.5 367 235.619 367 237V244C367 245.381 368.119 246.5 369.5 246.5H385.5C386.881 246.5 388 245.381 388 244V237C388 235.619 386.881 234.5 385.5 234.5H369.5ZM60.5 206.5C59.1193 206.5 58 207.619 58 209V229C58 230.381 59.1193 231.5 60.5 231.5H61.5C62.8807 231.5 64 230.381 64 229V209C64 207.619 62.8807 206.5 61.5 206.5H60.5ZM694.5 25.4287C693.119 25.4287 692 26.548 692 27.9287V219C692 220.381 693.119 221.5 694.5 221.5H782C783.381 221.5 784.5 220.381 784.5 219V214H790C791.381 214 792.5 212.881 792.5 211.5V34.5C792.5 33.1193 791.381 32 790 32H784.5V27.9287C784.5 26.548 783.381 25.4287 782 25.4287H694.5ZM517.5 139.5C516.119 139.5 515 140.619 515 142V165C515 166.381 516.119 167.5 517.5 167.5H519.5C520.881 167.5 522 166.381 522 165V142C522 140.619 520.881 139.5 519.5 139.5H517.5ZM310.5 153.5C309.119 153.5 308 154.619 308 156V164C308 165.381 309.119 166.5 310.5 166.5H341.5C342.881 166.5 344 165.381 344 164V156C344 154.619 342.881 153.5 341.5 153.5H310.5ZM353.5 153.5C352.119 153.5 351 154.619 351 156V164C351 165.381 352.119 166.5 353.5 166.5H362.5C363.881 166.5 365 165.381 365 164V156C365 154.619 363.881 153.5 362.5 153.5H353.5ZM374.5 153.5C373.119 153.5 372 154.619 372 156V164C372 165.381 373.119 166.5 374.5 166.5H456.5C457.881 166.5 459 165.381 459 164V156C459 154.619 457.881 153.5 456.5 153.5H374.5ZM456 82.5C454.619 82.5 453.5 83.6193 453.5 85V144C453.5 145.381 454.619 146.5 456 146.5H456.5C457.881 146.5 459 145.381 459 144V85C459 83.6193 457.881 82.5 456.5 82.5H456ZM517.5 118.5C516.119 118.5 515 119.619 515 121V130C515 131.381 516.119 132.5 517.5 132.5H671.5C672.881 132.5 674 131.381 674 130V121C674 119.619 672.881 118.5 671.5 118.5H517.5Z" fill="#C3C3C3"/>
</g>
<path id="blur" d="M129 0H468.5V11.5H676V113H460V168H129V0Z" fill="white" fill-opacity="0.7"/>
<path id="Vector" d="M64 72C54.6115 72 47 79.6115 47 89C47 98.3874 54.6115 106 64 106C73.3885 106 81 98.3874 81 89C81 79.6115 73.3885 72 64 72ZM56.0667 79.3667C56.0667 78.8 56.6333 78.2333 57.2 78.2333H59.4667C60.0333 78.2333 60.6 78.8 60.6 79.3667V81.6333C60.6 82.2 60.0333 82.7667 59.4667 82.7655H57.2C56.6333 82.7667 56.0667 82.2 56.0667 81.6333V79.3667ZM61.7333 91.2667L61.1667 86.1667L60.6 99.7667H58.9L58.3333 92.4L57.7667 99.7667H56.0667L55.5 86.1667L54.9333 91.2667H53.2333L53.8 85.0333C53.8 84.4667 54.3667 83.9 54.9333 83.9H61.7333C62.3 83.9 62.8667 84.4667 62.8667 85.0333L63.4333 91.2667H61.7333ZM67.4 79.3667C67.4 78.8 67.9667 78.2333 68.5333 78.2333H70.8C71.3667 78.2333 71.9333 78.8 71.9333 79.3667V81.6333C71.9333 82.2 71.3667 82.7667 70.8 82.7655H68.5333C67.9667 82.7667 67.4 82.2 67.4 81.6333V79.3667ZM73.0667 91.2667L71.9333 86.1667V88.4333L73.0667 93.5333H71.9333V99.7667H70.2333V93.5333H69.1V99.7667H67.4V93.5333H66.2667L67.4 88.4333V86.1667L66.2667 91.2667H64.5667L66.2667 85.0333C66.2667 84.4667 66.8333 83.9 67.4 83.9H71.9333C72.5 83.9 73.0667 84.4667 73.0667 85.0333L74.7667 91.2667H73.0667Z" fill="white"/>
<path id="Subtract" fill-rule="evenodd" clip-rule="evenodd" d="M75 324C84.3888 324 92 331.611 92 341C92 350.389 84.3888 358 75 358C65.6112 358 58 350.389 58 341C58 331.611 65.6112 324 75 324ZM69.05 329.95C69.05 329.95 68.2 335.9 68.2 336.75C68.2 337.6 70.1125 339.3 70.1125 339.3L69.9 350.642C69.9 351.581 70.6616 352.05 71.6 352.05C72.5384 352.05 73.3 351.581 73.3 350.642L73.0875 339.3C73.0875 339.3 75 337.564 75 336.75C75 335.936 74.15 329.95 74.15 329.95H73.3V335.475C73.3 335.588 73.2552 335.696 73.1755 335.775C73.0958 335.855 72.9877 335.9 72.875 335.9C72.7623 335.9 72.6542 335.855 72.5745 335.775C72.4948 335.696 72.45 335.588 72.45 335.475C72.45 335.396 72.1583 329.959 72.1578 329.95H71.0422C71.0417 329.959 70.75 335.396 70.75 335.475C70.75 335.588 70.7052 335.696 70.6255 335.775C70.5458 335.855 70.4377 335.9 70.325 335.9C70.2123 335.9 70.1042 335.855 70.0245 335.775C69.9448 335.696 69.9 335.588 69.9 335.475V329.95H69.05ZM78.1609 330.002V330.004C77.6605 330.124 77.55 330.66 77.55 331.251V350.641C77.55 351.58 78.3116 352.049 79.25 352.049C80.1884 352.049 80.9234 351.579 80.9234 350.641C80.9234 346.318 80.0734 344.012 80.0734 341.849C80.0734 340.873 81.7999 339.617 81.8 335.076C81.8 332.298 79.3384 330.002 78.4 330.002C78.3116 330.002 78.2323 329.985 78.1609 330.002Z" fill="white"/>
<g id="Subtract_2">
<path d="M223.624 206.24H212.512L218.068 201.794L223.624 206.24Z" fill="white"/>
<path fill-rule="evenodd" clip-rule="evenodd" d="M218 185C227.389 185 235 192.611 235 202C235 211.389 227.389 219 218 219C208.611 219 201 211.389 201 202C201 192.611 208.611 185 218 185ZM218.633 211.831L218.564 211.865L218.545 211.869L218.531 211.865L218.462 211.83C218.452 211.827 218.444 211.829 218.439 211.836L218.435 211.846L218.418 212.261L218.423 212.281L218.433 212.293L218.534 212.364L218.549 212.369L218.56 212.364L218.661 212.293L218.672 212.277L218.677 212.261L218.66 211.846C218.657 211.836 218.652 211.83 218.644 211.829L218.633 211.831ZM218.181 211.727L218.174 211.741L218.142 212.337C218.143 212.348 218.148 212.356 218.159 212.36L218.173 212.358L218.368 212.267L218.378 212.26L218.38 212.249L218.398 211.831L218.395 211.82L218.385 211.811L218.207 211.721C218.202 211.719 218.197 211.718 218.193 211.719C218.188 211.72 218.184 211.723 218.181 211.727ZM218.887 211.721L218.709 211.812L218.699 211.821L218.696 211.831L218.713 212.249L218.718 212.261L218.726 212.269L218.921 212.358C218.934 212.361 218.943 212.359 218.95 212.35L218.953 212.337L218.921 211.741C218.917 211.729 218.91 211.721 218.901 211.719L218.887 211.721ZM217.982 192.651C217.31 192.666 216.653 192.855 216.077 193.2C215.5 193.544 215.023 194.032 214.691 194.616C214.36 195.201 214.185 195.861 214.185 196.533C214.185 196.919 214.339 197.289 214.612 197.562C214.885 197.835 215.256 197.989 215.642 197.989C216.028 197.989 216.398 197.835 216.671 197.562C216.944 197.289 217.098 196.919 217.098 196.533C217.098 196.358 217.145 196.186 217.235 196.035C217.326 195.885 217.455 195.761 217.609 195.678C217.764 195.595 217.938 195.556 218.114 195.564C218.289 195.573 218.459 195.628 218.605 195.725C218.751 195.822 218.868 195.957 218.944 196.116C219.019 196.274 219.051 196.45 219.034 196.624C219.018 196.799 218.955 196.966 218.851 197.108C218.747 197.249 218.607 197.36 218.446 197.428C217.891 197.663 217.067 198.209 216.747 199.123L208.532 205.695C207.1 206.842 207.91 209.152 209.746 209.152H226.391C228.226 209.152 229.036 206.842 227.604 205.695L220.203 199.775C220.764 199.406 221.221 198.897 221.526 198.299C221.832 197.7 221.977 197.033 221.947 196.361C221.917 195.69 221.714 195.038 221.357 194.469C221 193.9 220.501 193.433 219.909 193.115C219.318 192.796 218.653 192.636 217.982 192.651Z" fill="white"/>
</g>
<g id="ico_id5">
<rect x="395" y="181" width="40" height="40" rx="20" fill="white"/>
<path id="Subtract_3" d="M415 181C426.046 181 435 189.954 435 201C435 212.046 426.046 221 415 221C403.954 221 395 212.046 395 201C395 189.954 403.954 181 415 181ZM404.669 198.125C403.751 198.125 403 198.876 403 199.794V205.797C403 205.82 403.012 205.84 403.014 205.864C403.012 205.91 403 205.954 403 206C403 206.232 403.092 206.455 403.256 206.619C403.42 206.783 403.643 206.875 403.875 206.875H404.75V207.75C404.75 208.214 404.935 208.659 405.263 208.987C405.591 209.315 406.036 209.5 406.5 209.5C406.964 209.5 407.409 209.315 407.737 208.987C408.065 208.659 408.25 208.214 408.25 207.75V206.875H422.25V207.75C422.25 208.214 422.435 208.659 422.763 208.987C423.091 209.315 423.536 209.5 424 209.5C424.464 209.5 424.909 209.315 425.237 208.987C425.565 208.659 425.75 208.214 425.75 207.75V206.875H426.625C426.857 206.875 427.08 206.783 427.244 206.619C427.408 206.455 427.5 206.232 427.5 206C427.5 203.101 425.149 202.5 422.25 202.5H406.5V199.794C406.5 198.876 405.749 198.125 404.831 198.125H404.669ZM410.42 192C406.326 192 403.696 194.063 403 196.757C403.444 196.545 404.146 196.375 404.669 196.375H404.831C405.738 196.376 406.607 196.736 407.248 197.377C407.889 198.018 408.249 198.887 408.25 199.794V200.75H424.951C425.056 200.75 425.16 200.729 425.257 200.689C425.354 200.649 425.442 200.591 425.517 200.517C425.591 200.442 425.649 200.354 425.689 200.257C425.729 200.16 425.75 200.056 425.75 199.951V199.569C425.75 199.15 425.667 198.734 425.507 198.347C425.346 197.959 425.111 197.607 424.814 197.311C424.518 197.014 424.166 196.779 423.778 196.618C423.391 196.458 422.975 196.375 422.556 196.375H417.875C416.799 193.852 414.341 192 410.42 192Z" fill="#FF8A15"/>
</g>
<g id="ico_id1">
<rect x="171" y="379" width="40" height="40" rx="20" fill="white"/>
<g id="Subtract_4">
<path d="M186.097 397.763C186.517 397.339 187.239 397.634 187.243 398.23C187.246 398.603 186.945 398.906 186.572 398.906C185.975 398.906 185.676 398.186 186.097 397.763Z" fill="#FF8A15"/>
<path d="M182.503 397.756C182.926 397.333 183.648 397.633 183.648 398.23C183.648 398.601 183.348 398.902 182.978 398.902C182.38 398.902 182.08 398.179 182.503 397.756Z" fill="#FF8A15"/>
<path d="M189.692 397.756C190.115 397.333 190.838 397.633 190.838 398.23C190.838 398.601 190.538 398.902 190.167 398.902C189.569 398.902 189.27 398.179 189.692 397.756Z" fill="#FF8A15"/>
<path fill-rule="evenodd" clip-rule="evenodd" d="M191 379C202.046 379 211 387.954 211 399C211 410.046 202.046 419 191 419C179.954 419 171 410.046 171 399C171 387.954 179.954 379 191 379ZM196.76 393.893V403.153H185.553V406.103H196.457L199.335 411.26L200.226 406.103H204.368V393.893H196.76ZM177 390V402.21H181.143L182.033 407.369L184.911 402.21H195.815V390H177Z" fill="#FF8A15"/>
</g>
</g>
<g id="ico_id2">
<rect x="406" y="265" width="40" height="40" rx="20" fill="white"/>
<g id="Subtract_5">
<path d="M421.097 283.763C421.517 283.339 422.239 283.634 422.243 284.23C422.246 284.603 421.945 284.906 421.572 284.906C420.975 284.906 420.676 284.186 421.097 283.763Z" fill="#FF8A15"/>
<path d="M417.503 283.756C417.926 283.333 418.648 283.633 418.648 284.23C418.648 284.601 418.348 284.902 417.978 284.902C417.38 284.902 417.08 284.179 417.503 283.756Z" fill="#FF8A15"/>
<path d="M424.692 283.756C425.115 283.333 425.838 283.633 425.838 284.23C425.838 284.601 425.538 284.902 425.167 284.902C424.569 284.902 424.27 284.179 424.692 283.756Z" fill="#FF8A15"/>
<path fill-rule="evenodd" clip-rule="evenodd" d="M426 265C437.046 265 446 273.954 446 285C446 296.046 437.046 305 426 305C414.954 305 406 296.046 406 285C406 273.954 414.954 265 426 265ZM431.76 279.893V289.153H420.553V292.103H431.457L434.335 297.26L435.226 292.103H439.368V279.893H431.76ZM412 276V288.21H416.143L417.033 293.369L419.911 288.21H430.815V276H412Z" fill="#FF8A15"/>
</g>
</g>
<g id="ico_id4">
<rect x="351" y="404" width="40" height="40" rx="20" fill="white"/>
<g id="Subtract_6">
<path d="M366.097 422.763C366.517 422.339 367.239 422.634 367.243 423.23C367.246 423.603 366.945 423.906 366.572 423.906C365.975 423.906 365.676 423.186 366.097 422.763Z" fill="#FF8A15"/>
<path d="M362.503 422.756C362.926 422.333 363.648 422.633 363.648 423.23C363.648 423.601 363.348 423.902 362.978 423.902C362.38 423.902 362.08 423.179 362.503 422.756Z" fill="#FF8A15"/>
<path d="M369.692 422.756C370.115 422.333 370.838 422.633 370.838 423.23C370.838 423.601 370.538 423.902 370.167 423.902C369.569 423.902 369.27 423.179 369.692 422.756Z" fill="#FF8A15"/>
<path fill-rule="evenodd" clip-rule="evenodd" d="M371 404C382.046 404 391 412.954 391 424C391 435.046 382.046 444 371 444C359.954 444 351 435.046 351 424C351 412.954 359.954 404 371 404ZM376.76 418.893V428.153H365.553V431.103H376.457L379.335 436.26L380.226 431.103H384.368V418.893H376.76ZM357 415V427.21H361.143L362.033 432.369L364.911 427.21H375.815V415H357Z" fill="#FF8A15"/>
</g>
</g>
<g id="ico_id3">
<rect x="713" y="265" width="40" height="40" rx="20" fill="white"/>
<g id="Subtract_7">
<path d="M728.097 283.763C728.517 283.339 729.239 283.634 729.243 284.23C729.246 284.603 728.945 284.906 728.572 284.906C727.975 284.906 727.676 284.186 728.097 283.763Z" fill="#FF8A15"/>
<path d="M724.503 283.756C724.926 283.333 725.648 283.633 725.648 284.23C725.648 284.601 725.348 284.902 724.978 284.902C724.38 284.902 724.08 284.179 724.503 283.756Z" fill="#FF8A15"/>
<path d="M731.692 283.756C732.115 283.333 732.838 283.633 732.838 284.23C732.838 284.601 732.538 284.902 732.167 284.902C731.569 284.902 731.27 284.179 731.692 283.756Z" fill="#FF8A15"/>
<path fill-rule="evenodd" clip-rule="evenodd" d="M733 265C744.046 265 753 273.954 753 285C753 296.046 744.046 305 733 305C721.954 305 713 296.046 713 285C713 273.954 721.954 265 733 265ZM738.76 279.893V289.153H727.553V292.103H738.457L741.335 297.26L742.226 292.103H746.368V279.893H738.76ZM719 276V288.21H723.143L724.033 293.369L726.911 288.21H737.815V276H719Z" fill="#FF8A15"/>
</g>
</g>
</g>
</svg>
